Coordinates
version=1
nRows=16
nColumns=40
inDegrees=yes

Units are S.I. units (second, meters, Newtons, ...)
Angles are in degrees.

endheader
time	pelvis_tilt	pelvis_list	pelvis_rotation	pelvis_tx	pelvis_ty	pelvis_tz	hip_flexion_r	hip_adduction_r	hip_rotation_r	knee_angle_r	knee_angle_r_beta	ankle_angle_r	subtalar_angle_r	mtp_angle_r	hip_flexion_l	hip_adduction_l	hip_rotation_l	knee_angle_l	knee_angle_l_beta	ankle_angle_l	subtalar_angle_l	mtp_angle_l	lumbar_extension	lumbar_bending	lumbar_rotation	arm_flex_r	arm_add_r	arm_rot_r	elbow_flex_r	pro_sup_r	wrist_flex_r	wrist_dev_r	arm_flex_l	arm_add_l	arm_rot_l	elbow_flex_l	pro_sup_l	wrist_flex_l	wrist_dev_l
     50.02000000	     -4.44312163	     -6.74383316	      2.01555450	      1.13576211	      0.93108247	      0.50968671	     11.88095963	      5.97180391	    -16.45231843	     14.75059905	     14.75059905	      9.32587626	      0.96734856	     -1.90382891	     31.18181212	    -14.48064486	      4.41538902	     67.19001791	     67.19001791	      4.89620517	    -18.58250217	     12.13362789	     -9.19214182	      6.44775017	      2.83164521	     15.75061273	    -13.83608867	     -4.35771748	     46.17371457	     44.91798189	      0.00000000	      0.00000000	     12.70756405	     -8.61178450	     -6.79247766	     38.67329289	     44.61249181	      0.00000000	      0.00000000
     50.03178571	     -4.51242409	     -6.66771014	      2.34112744	      1.13388828	      0.93141203	      0.51032289	     11.12974549	      6.03607383	    -16.52127875	     14.23657513	     14.23657513	      9.61214457	      1.00657704	     -1.92448217	     32.84102870	    -14.40251042	      4.11077358	     65.04801121	     65.04801121	      5.60559870	    -18.84538431	     12.53025045	     -9.26744178	      6.29603533	      2.27436120	     18.57085684	    -13.69685255	     -4.43942780	     48.32026487	     44.86899052	      0.00000000	      0.00000000	     10.99726199	     -8.54166008	     -6.50829388	     36.34624897	     44.58452930	      0.00000000	      0.00000000
     50.04357143	     -4.59943335	     -6.57902745	      2.63378977	      1.13206638	      0.93162413	      0.51085860	     10.41019657	      6.08334562	    -16.57289007	     13.73783800	     13.73783800	      9.81471845	      0.98593655	     -2.16173061	     34.28243384	    -14.22026658	      3.77371499	     62.60549021	     62.60549021	      6.65571856	    -18.93200230	     14.22549365	     -9.30492037	      6.11630446	      2.73350353	     20.24576950	    -14.56660922	     -3.81552096	     52.16697146	     44.75978528	      0.00000000	      0.00000000	     10.97307430	     -7.96253684	     -5.77222732	     31.10507741	     44.63384164	      0.00000000	      0.00000000
     50.05535714	     -4.63791982	     -6.45381510	      2.92555274	      1.13031499	      0.93185256	      0.51133534	      9.63471731	      6.09754549	    -16.58640190	     13.23093294	     13.23093294	     10.09698128	      0.98607482	     -2.17615919	     35.33625496	    -13.94832344	      3.37011453	     59.67325478	     59.67325478	      7.15230451	    -19.01758498	     14.65753912	     -9.45574361	      5.89374481	      2.33880982	     22.98758632	    -14.45294349	     -4.06713781	     54.36370625	     44.71628757	      0.00000000	      0.00000000	      9.27451497	     -7.83923755	     -5.57091959	     29.34601356	     44.61027387	      0.00000000	      0.00000000
     50.06714286	     -4.70989668	     -6.33701520	      3.19639429	      1.12858584	      0.93193011	      0.51165601	      8.90641164	      6.10346296	    -16.62917216	     12.73806054	     12.73806054	     10.36208433	      1.05651745	     -2.23167674	     36.21728698	    -13.57499672	      3.01534854	     56.42970673	     56.42970673	      7.56636304	    -18.96948698	     15.16332466	     -9.56933941	      5.70806149	      2.06934852	     25.55933356	    -14.43717875	     -4.20087152	     56.66479302	     44.66392483	      0.00000000	      0.00000000	      7.83144501	     -7.65538354	     -5.30100800	     27.32846413	     44.58180088	      0.00000000	      0.00000000
     50.07892857	     -4.81888516	     -6.23930130	      3.45605324	      1.12688446	      0.93180222	      0.51175193	      8.23553851	      6.10195523	    -16.73277189	     12.27417163	     12.27417163	     10.63520119	      1.21284270	     -2.33950201	     36.94396735	    -13.07362066	      2.79546585	     52.91477852	     52.91477852	      7.89906941	    -18.86109090	     15.50138210	     -9.60769595	      5.58238772	      1.98091455	     27.97938273	    -14.59865179	     -4.29481857	     59.06361414	     44.60784160	      0.00000000	      0.00000000	      6.56236794	     -7.37950665	     -4.97525235	     25.24680982	     44.54933784	      0.00000000	      0.00000000
     50.09071429	     -4.99115103	     -6.17322953	      3.67611666	      1.12515726	      0.93145488	      0.51174793	      7.64777526	      6.09319073	    -16.96972735	     11.83193438	     11.83193438	     10.88055613	      1.66136177	     -2.68376772	     37.51822478	    -12.53947631	      2.65548152	     49.02665661	     49.02665661	      7.72281364	    -18.59739145	     14.60108203	     -9.65360457	      5.48308197	      2.81572389	     29.26181149	    -15.74491821	     -4.46138700	     63.31743251	     44.53991611	      0.00000000	      0.00000000	      6.46300328	     -6.83768198	     -3.87855975	     21.47075088	     44.53055959	      0.00000000	      0.00000000
     50.10250000	     -5.16961471	     -6.10032193	      3.88375197	      1.12350118	      0.93104158	      0.51159158	      7.05215468	      6.09016761	    -17.09805398	     11.36506966	     11.36506966	     11.15468679	      1.94196724	     -2.75874204	     37.93738348	    -11.89673375	      2.67642443	     44.93960618	     44.93960618	      7.76581143	    -18.02724212	     14.27722848	     -9.65824545	      5.37272423	      2.65349598	     31.77911107	    -15.69360818	     -4.80291208	     65.38964048	     44.51194412	      0.00000000	      0.00000000	      4.80950239	     -6.63622409	     -3.64699052	     20.54478901	     44.49416318	      0.00000000	      0.00000000
     50.11428571	     -5.49975454	     -6.20855358	      4.05124649	      1.12183351	      0.93006684	      0.51133535	      6.76394010	      6.23327255	    -17.16614690	     11.16085003	     11.16085003	     11.51217287	      1.99924434	     -2.90253188	     38.51239707	    -11.46078786	      2.75426276	     40.87554959	     40.87554959	      8.21136898	    -16.64650020	     14.35382494	     -9.35406126	      5.50020788	      3.14767838	     34.09568881	    -16.33713223	     -5.12626669	     66.52033451	     44.50014784	      0.00000000	      0.00000000	      3.37931126	     -6.28587400	     -3.60109640	     20.02360057	     44.46368312	      0.00000000	      0.00000000
     50.12607143	     -5.52962914	     -6.04071622	      4.20097516	      1.12067416	      0.92970181	      0.51084956	      5.80823004	      6.12212336	    -17.58809638	     10.43372638	     10.43372638	     11.86193753	      3.07987324	     -2.91659080	     38.06578468	    -10.85583723	      2.45169037	     35.78079038	     35.78079038	      6.39249808	    -15.50140034	      8.75442604	     -9.59156403	      5.33469337	      3.08393659	     35.83884202	    -16.39874305	     -5.30311597	     70.72547016	     44.49092062	      0.00000000	      0.00000000	      1.51384426	     -6.32261706	     -1.71968170	     19.90650555	     44.21270850	      0.00000000	      0.00000000
     50.13785714	     -5.75026494	     -6.02132361	      4.30628514	      1.11942693	      0.92880829	      0.51034052	      5.21667736	      6.15664589	    -17.68287667	      9.95839329	      9.95839329	     12.20962725	      3.46388483	     -3.02956692	     38.08282135	    -10.39518044	      2.27287675	     31.36831079	     31.36831079	      6.87420737	    -13.09302629	      8.88753939	     -9.44551278	      5.31587998	      3.15400673	     38.19998775	    -16.50004532	     -5.48978177	     72.25618999	     44.46745979	      0.00000000	      0.00000000	     -0.11572618	     -6.08837654	     -1.54805520	     19.48194348	     44.15975089	      0.00000000	      0.00000000
     50.14964286	     -5.93969599	     -6.07239051	      4.40965276	      1.11838973	      0.92776366	      0.50971492	      4.54584104	      6.26808633	    -17.84836835	      9.42659504	      9.42659504	     12.57276496	      3.99191870	     -3.14101843	     37.98484499	    -10.04196437	      2.00275529	     27.05187416	     27.05187416	      7.22513078	    -10.39944110	      9.04759945	     -9.31185049	      5.40354470	      3.21715870	     40.45322348	    -16.56675803	     -5.61378243	     73.94630567	     44.43513813	      0.00000000	      0.00000000	     -1.84303865	     -5.87704353	     -1.40010818	     19.25227199	     44.10073021	      0.00000000	      0.00000000
     50.16142857	     -6.10006821	     -6.17223479	      4.49237221	      1.11752982	      0.92656844	      0.50896943	      3.83273909	      6.42670566	    -17.99908224	      8.89552974	      8.89552974	     12.90825047	      4.58038136	     -3.23476786	     37.81124774	     -9.75704287	      1.67892581	     23.00951300	     23.00951300	      7.48219189	     -7.70974580	      9.37933421	     -9.15783103	      5.53123765	      3.30683969	     42.62716300	    -16.61878453	     -5.69745195	     75.62860993	     44.40047177	      0.00000000	      0.00000000	     -3.52225281	     -5.63513270	     -1.26757525	     19.20084492	     44.03872071	      0.00000000	      0.00000000
     50.17321429	     -6.10576953	     -6.26706566	      4.58189075	      1.11718347	      0.92540591	      0.50806004	      2.81861017	      6.60492730	    -18.32009674	      8.19528952	      8.19528952	     13.30073616	      5.51966363	     -3.27310262	     37.50961136	     -9.55236282	      0.94400708	     19.54639736	     19.54639736	      7.79787379	     -4.98171288	      9.84258968	     -9.17815980	      5.73989590	      3.20008489	     44.67407603	    -16.53977247	     -5.65292773	     77.74587937	     44.35410196	      0.00000000	      0.00000000	     -5.57536258	     -5.47769892	     -1.00966701	     19.68701443	     43.93475230	      0.00000000	      0.00000000
     50.18500000	     -6.16184083	     -6.37574776	      4.62992673	      1.11687289	      0.92402738	      0.50706003	      1.95795722	      6.76649484	    -18.48369224	      7.69354339	      7.69354339	     13.72315965	      6.18710414	     -3.30370666	     37.31129122	     -9.33175457	      0.24733625	     16.69101442	     16.69101442	      7.92518678	     -2.96746835	     10.60260133	     -9.07591664	      5.92100613	      3.26327624	     46.58696236	    -16.59728968	     -5.64845381	     79.38593174	     44.32359074	      0.00000000	      0.00000000	     -7.48068975	     -5.30994597	     -0.72596678	     20.16508690	     43.82999953	      0.00000000	      0.00000000
     50.19678571	     -6.21413854	     -6.47969030	      4.66615670	      1.11679762	      0.92254069	      0.50591795	      1.10570033	      6.91438136	    -18.61777321	      7.24429305	      7.24429305	     14.17898819	      6.75770100	     -3.29993026	     37.19309728	     -9.11070852	     -0.49904596	     14.61746346	     14.61746346	      8.05187720	     -1.58791703	     11.36807646	     -8.95523806	      6.10279599	      3.29622786	     48.43751926	    -16.57299771	     -5.61381412	     80.88550592	     44.29814195	      0.00000000	      0.00000000	     -9.34569285	     -5.13680906	     -0.37617592	     20.72129907	     43.71675291	      0.00000000	      0.00000000
